<svg xmlns="http://www.w3.org/2000/svg" viewBox="0 0 220 220" role="img" aria-label="App 下载二维码">
  <rect width="220" height="220" fill="#fff"/>
  <rect x="12" y="12" width="196" height="196" fill="none" stroke="#0f2f61" stroke-width="8"/>
  <rect x="26" y="26" width="44" height="44" fill="#0f2f61"/>
  <rect x="34" y="34" width="28" height="28" fill="#fff"/>
  <rect x="150" y="26" width="44" height="44" fill="#0f2f61"/>
  <rect x="158" y="34" width="28" height="28" fill="#fff"/>
  <rect x="26" y="150" width="44" height="44" fill="#0f2f61"/>
  <rect x="34" y="158" width="28" height="28" fill="#fff"/>
  <g fill="#0f2f61">
    <rect x="88" y="26" width="10" height="10"/>
    <rect x="108" y="26" width="10" height="10"/>
    <rect x="88" y="46" width="10" height="10"/>
    <rect x="98" y="56" width="10" height="10"/>
    <rect x="118" y="46" width="10" height="10"/>
    <rect x="140" y="88" width="10" height="10"/>
    <rect x="120" y="88" width="10" height="10"/>
    <rect x="100" y="88" width="10" height="10"/>
    <rect x="80" y="88" width="10" height="10"/>
    <rect x="88" y="108" width="10" height="10"/>
    <rect x="108" y="108" width="10" height="10"/>
    <rect x="128" y="108" width="10" height="10"/>
    <rect x="148" y="108" width="10" height="10"/>
    <rect x="168" y="108" width="10" height="10"/>
    <rect x="88" y="128" width="10" height="10"/>
    <rect x="108" y="128" width="10" height="10"/>
    <rect x="128" y="128" width="10" height="10"/>
    <rect x="148" y="128" width="10" height="10"/>
    <rect x="168" y="128" width="10" height="10"/>
    <rect x="88" y="148" width="10" height="10"/>
    <rect x="108" y="148" width="10" height="10"/>
    <rect x="128" y="148" width="10" height="10"/>
    <rect x="148" y="148" width="10" height="10"/>
    <rect x="168" y="148" width="10" height="10"/>
    <rect x="88" y="168" width="10" height="10"/>
    <rect x="108" y="168" width="10" height="10"/>
    <rect x="128" y="168" width="10" height="10"/>
    <rect x="148" y="168" width="10" height="10"/>
    <rect x="168" y="168" width="10" height="10"/>
  </g>
</svg>
