<svg width="240" height="120" viewBox="0 0 240 120" fill="none" xmlns="http://www.w3.org/2000/svg">
  <defs>
    <linearGradient id="g1" x1="0" y1="0" x2="1" y2="1">
      <stop offset="0%" stop-color="#4CBEE7"/>
      <stop offset="100%" stop-color="#004F9E"/>
    </linearGradient>
    <linearGradient id="g2" x1="0" y1="1" x2="1" y2="0">
      <stop offset="0%" stop-color="#2CC5B4"/>
      <stop offset="100%" stop-color="#0C5AA0"/>
    </linearGradient>
  </defs>
  <path d="M10 25H55C60 25 64 27 67 30L88 53L70 71L10 25Z" fill="url(#g1)"/>
  <path d="M6 112H34C41 112 47 109 52 104L180 25H152C146 25 141 27 137 31L6 112Z" fill="url(#g2)"/>
  <path d="M95 82L114 63L145 94C150 99 156 102 163 102C178 102 190 90 190 74V44H214V74C214 103 192 118 163 118C150 118 137 113 128 104L95 82Z" fill="url(#g1)"/>
  <rect x="202" y="10" width="12" height="36" fill="url(#g2)"/>
  <rect x="190" y="22" width="36" height="12" fill="url(#g2)"/>
</svg>
